# xmcd CD database file
#
# Track frame offsets:
#	150
#	78368
#	158098
#	197745
#
# Disc length: 3830 seconds
#
# Revision: 0
# Processed by: cddbd v1.5PL3 Copyright (c) Steve Scherf et al.
# Submitted via: CDex 1.51
#
DISCID=260ef404
DTITLE=DEXTER GORDON - LIVE at the LEFT BANK
DYEAR=1969
DGENRE=Jazz
TTITLE0=BROADWAY
TTITLE1=BOSTON BERNIE
TTITLE2=IN A SENTIMENTAL NOOD
TTITLE3=NLUES UP AND DOWN
EXTD=YEAR: 1969
EXTT0=
EXTT1=
EXTT2=
EXTT3=
PLAYORDER=
